<mxfile host="app.diagrams.net" modified="2023-11-25T03:09:57.703Z" agent="Mozilla/5.0 (Windows NT 10.0; Win64; x64) AppleWebKit/537.36 (KHTML, like Gecko) Chrome/119.0.0.0 Safari/537.36" etag="W4FlY1-5-UMEr53reTOI" version="22.1.4" type="github">
  <diagram name="Page-1" id="ygyxTN1Fh4eBlmKyEC32">
    <mxGraphModel dx="1434" dy="758" grid="1" gridSize="10" guides="1" tooltips="1" connect="1" arrows="1" fold="1" page="1" pageScale="1" pageWidth="850" pageHeight="1100" math="0" shadow="0">
      <root>
        <mxCell id="0" />
        <mxCell id="1" parent="0" />
        <mxCell id="C_4nd0uWBt-fdI7aFm-E-3" value="" style="group;movable=1;resizable=1;rotatable=1;deletable=1;editable=1;locked=0;connectable=1;" vertex="1" connectable="0" parent="1">
          <mxGeometry x="50" y="580" width="295" height="100" as="geometry" />
        </mxCell>
        <mxCell id="C_4nd0uWBt-fdI7aFm-E-1" value="&lt;br&gt;Remote" style="strokeWidth=2;html=1;shape=mxgraph.flowchart.database;whiteSpace=wrap;" vertex="1" parent="C_4nd0uWBt-fdI7aFm-E-3">
          <mxGeometry width="80" height="100" as="geometry" />
        </mxCell>
        <mxCell id="C_4nd0uWBt-fdI7aFm-E-2" value="&lt;br&gt;Remote" style="strokeWidth=2;html=1;shape=mxgraph.flowchart.database;whiteSpace=wrap;" vertex="1" parent="C_4nd0uWBt-fdI7aFm-E-3">
          <mxGeometry x="210" width="80" height="100" as="geometry" />
        </mxCell>
        <mxCell id="C_4nd0uWBt-fdI7aFm-E-4" value="&lt;br&gt;Index" style="strokeWidth=2;html=1;shape=mxgraph.flowchart.database;whiteSpace=wrap;" vertex="1" parent="1">
          <mxGeometry x="490" y="620" width="60" height="60" as="geometry" />
        </mxCell>
        <mxCell id="C_4nd0uWBt-fdI7aFm-E-5" value="workspace" style="strokeWidth=2;html=1;shape=mxgraph.flowchart.document2;whiteSpace=wrap;size=0.25;" vertex="1" parent="1">
          <mxGeometry x="680" y="580" width="100" height="70" as="geometry" />
        </mxCell>
      </root>
    </mxGraphModel>
  </diagram>
</mxfile>
